# xmcd
#
# Track frame offsets: 
#        183
#        16453
#        30000
#        42043
#        55208
#        69178
#        81605
#        95083
#        107913
#        121213
#        132775
#        144553
#        158038
#        171763
#        184385
#        196265
#        208530
#        220633
#        233030
#        245868
#
# Disc length: 3445 seconds
#
# Revision: 4
# Processed by: cddbd v1.5.2PL0 Copyright (c) Steve Scherf et al.
# Submitted via: ExactAudioCopy v0.95b4
#
DISCID=150d7314
DTITLE=Big Bill Broonzy - The Southern Blues (Charly Blues Masterworks
DTITLE=Vol.49)
DYEAR=1996
DGENRE=Blues
TTITLE0=The Southern Blues (rec. Chicago, February 26 1935)
TTITLE1=These Ants Keep Biting Me (rec. Chicago, February 12 1936)
TTITLE2=Pneumonia Blues (I Keep on Aching) (rec. Chicago, April 22 193
TTITLE2=6)
TTITLE3=Detroit Special (rec. Chicago, September 16 1936)
TTITLE4=Horny Frog (rec. Chicago, January 31 1937)
TTITLE5=Hattie Blues (rec. Chicago, October 21 1937)
TTITLE6=Somebody's Got To Go (rec. Chicago, October 21 1937)
TTITLE7=It's Your Time Now (rec. Chicago, April 5 1938)
TTITLE8=Living On Easy Street (rec. Chicago, September 15 1938)
TTITLE9=Baby I Done Got Wise (rec. Chicago, February 5 1939)
TTITLE10=Just a Dream (On My Mind) (rec. Chicago, February 5 1939)
TTITLE11=That's Allright Baby (rec. Chicago, May 11 1939)
TTITLE12=I.C.Blues (rec. Chicago, September 14 1939)
TTITLE13=Cotton Choppin' Blues (rec. Chicago, September 14 1939)
TTITLE14=My Last Goodbye To You (rec. Chicago, September 14 1939)
TTITLE15=Midnight Steppers (rec. Chicago, June 10 1940)
TTITLE16=Hit The Right Lick (rec. Chicago, September 20 1940)
TTITLE17=That Number of Mine (rec. Chicago, December 17 1940)
TTITLE18=Rockin' Chair Blues (rec. Chicago, December 17 1940)
TTITLE19=Bad Acting Woman (rec. Chicago, December 2 1941)
EXTD=
EXTT0=
EXTT1=
EXTT2=
EXTT3=
EXTT4=
EXTT5=
EXTT6=
EXTT7=
EXTT8=
EXTT9=
EXTT10=
EXTT11=
EXTT12=
EXTT13=
EXTT14=
EXTT15=
EXTT16=
EXTT17=
EXTT18=
EXTT19=
PLAYORDER=
